<?xml version="1.0" encoding="UTF-8"?>
<svg version="1.1" xmlns="http://www.w3.org/2000/svg" width="500" height="500">
<path d="M0 0 C0.66 0.33 1.32 0.66 2 1 C3.44539088 1.09212794 4.89498449 1.12193124 6.3433075 1.12025452 C7.72032931 1.12231604 7.72032931 1.12231604 9.12516975 1.12441921 C10.14049215 1.12082425 11.15581455 1.11722929 12.2019043 1.11352539 C13.27557692 1.11367425 14.34924953 1.11382311 15.45545769 1.11397648 C19.07839755 1.11327819 22.70128763 1.10541823 26.32421875 1.09765625 C28.91283642 1.09573822 31.50145446 1.09427388 34.09007263 1.0932312 C39.6814131 1.09033889 45.27274044 1.0838889 50.86407471 1.07516479 C58.97656873 1.06260285 67.08905788 1.05653124 75.20156002 1.05223143 C88.40016495 1.04515399 101.59876379 1.034351 114.79736328 1.02050781 C115.58790635 1.01968 116.37844942 1.01885219 117.19294834 1.01799929 C123.5935254 1.01126788 129.99410226 1.00435527 136.39467907 0.99739647 C141.95436279 0.99135221 147.51404657 0.98536806 153.07373047 0.97949219 C153.85603236 0.97866406 154.63833425 0.97783593 155.44434226 0.97698271 C168.56397328 0.9632188 181.6836044 0.95349893 194.80324078 0.94658184 C202.87529021 0.9421354 210.94732086 0.93416849 219.01936156 0.92143703 C224.57801536 0.91290546 230.13666492 0.90809663 235.69532484 0.90601182 C238.88634155 0.90468796 242.07732919 0.90123444 245.26833916 0.89425278 C261.86976721 0.85912277 278.41576988 1.23303571 295 2 C294.58790283 2.4748584 294.17580566 2.9497168 293.7512207 3.43896484 C292.94044067 4.37796631 292.94044067 4.37796631 292.11328125 5.3359375 C291.57743408 5.9551709 291.04158691 6.5744043 290.48950195 7.21240234 C285.87208054 12.75391351 284.88824874 17.60551285 284.84178162 24.68843079 C284.8319928 25.82280075 284.82220398 26.95717072 284.81211853 28.12591553 C284.80636307 29.36093811 284.8006076 30.59596069 284.79467773 31.8684082 C284.78477814 33.17611679 284.77487854 34.48382538 284.76467896 35.8311615 C284.73770101 39.40924432 284.71665308 42.98734023 284.69667697 46.56546807 C284.67477343 50.30776354 284.64740615 54.05001897 284.62062073 57.7922821 C284.57075282 64.87528712 284.52579215 71.95831443 284.48259836 79.04136294 C284.43317548 87.1066481 284.37827612 95.17189308 284.32291877 103.23713934 C284.20918935 119.8247225 284.10233071 136.41234253 284 153 C268.85436214 153.1855478 253.7085211 153.34903675 238.5625 153.5 C236.77657881 153.51781588 236.77657881 153.51781588 234.9545784 153.53599167 C181.78261671 154.05897957 128.61162955 154.08550593 75.4375 154.0625 C74.42809058 154.06207577 73.41868115 154.06165154 72.37868357 154.06121445 C46.25244675 154.05004956 20.1262221 154.02980388 -6 154 C-5.01 152.02 -5.01 152.02 -4 150 C-3.34 150 -2.68 150 -2 150 C2.40355798 141.8703545 3.44178471 135.24841701 3.40405273 126.11132812 C3.41091599 124.94282822 3.41777924 123.77432831 3.42485046 122.57041931 C3.44308974 118.7239045 3.43928524 114.87779861 3.43359375 111.03125 C3.43700249 109.02738838 3.44041957 107.02352656 3.44494683 105.01966715 C3.45895946 98.72612003 3.45745749 92.43270877 3.44604492 86.13916016 C3.43456084 79.66337179 3.44865128 73.18799743 3.4754414 66.71226358 C3.49764422 61.13492384 3.50422569 55.55771362 3.49836498 49.98033285 C3.4950058 46.65678055 3.49906575 43.33355121 3.51461601 40.01002502 C3.52952077 36.30259527 3.51885151 32.59607354 3.50170898 28.88867188 C3.51137695 27.79856308 3.52104492 26.70845428 3.53100586 25.58531189 C3.46639475 18.89993112 2.3637664 14.77865852 -1 9 C-1 8.34 -1 7.68 -1 7 C-1.78375 7.185625 -2.5675 7.37125 -3.375 7.5625 C-6 8 -6 8 -8 7 C-6.88424427 3.65273281 -6.48655378 3.37920252 -3.5625 1.75 C-2.386875 1.1725 -1.21125 0.595 0 0 Z M118 18 C121.67884945 21.68161421 121.67884945 21.68161421 125.4296875 25.2890625 C132.67781512 32.21299272 138.46724742 39.53969622 142 49 C142.33 49 142.66 49 143 49 C143 38.77 143 28.54 143 18 C134.75 18 126.5 18 118 18 Z M191 18 C192.65315553 22.95946658 194.51448531 26.86328114 197.1875 31.25 C198.09371356 32.76356586 198.99857267 34.27794319 199.90234375 35.79296875 C200.39718262 36.62103027 200.89202148 37.4490918 201.40185547 38.30224609 C204.39886613 43.36136125 207.31917648 48.46485817 210.25 53.5625 C215.1171792 62.01698869 220.01040518 70.45529883 224.9375 78.875 C230.09824162 87.69739666 235.18889036 96.55776704 240.25 105.4375 C244.7754273 113.37600199 249.31017805 121.30782686 253.9375 129.1875 C254.34452148 129.88222412 254.75154297 130.57694824 255.17089844 131.29272461 C256.85001374 134.31970129 256.85001374 134.31970129 259 137 C261.64 137 264.28 137 267 137 C267 97.73 267 58.46 267 18 C241.92 18 216.84 18 191 18 Z M24.64941406 25.68017578 C22.50092622 30.00450049 22.4899426 33.36127275 22.609375 38.1171875 C22.61503479 38.97434357 22.62069458 39.83149963 22.62652588 40.71463013 C22.64880361 43.4353368 22.69898226 46.15469568 22.75 48.875 C22.7700762 50.72654339 22.788325 52.57810756 22.8046875 54.4296875 C22.84863999 58.9536393 22.91760641 63.47659164 23 68 C30.24052743 68.15277007 37.48063571 68.25747496 44.72241211 68.32958984 C47.18318209 68.35966826 49.64384569 68.40054218 52.10424805 68.45263672 C55.65179763 68.52584126 59.19792378 68.55954774 62.74609375 68.5859375 C63.8370787 68.61690521 64.92806366 68.64787292 66.05210876 68.67977905 C73.42109188 68.6829889 78.61010005 67.2321285 84 62 C85.23741238 59.90371668 85.23741238 59.90371668 86 58 C86.66 58 87.32 58 88 58 C88 70.21 88 82.42 88 95 C87.34 95 86.68 95 86 95 C85.74959457 94.40627594 85.49918915 93.81255188 85.24119568 93.20083618 C82.91912385 89.0834357 79.22479955 86.93867584 75 85 C70.88826417 84.23951006 66.91600588 84.29569914 62.74609375 84.4140625 C61.03390404 84.42679703 61.03390404 84.42679703 59.28712463 84.43978882 C55.66959081 84.47316385 52.05435106 84.54841976 48.4375 84.625 C45.97333966 84.65511985 43.50914411 84.68249209 41.04492188 84.70703125 C35.02917565 84.77290302 29.01475177 84.87309294 23 85 C22.90088311 90.87153231 22.82841389 96.74257413 22.78027344 102.61474609 C22.76019831 104.61092618 22.73293211 106.60704775 22.69824219 108.60302734 C22.64954343 111.4776862 22.62699014 114.3515654 22.609375 117.2265625 C22.58872986 118.11429352 22.56808472 119.00202454 22.54681396 119.91665649 C22.54483288 125.42744677 23.12862477 128.76592814 27 133 C32.44088095 137.02164831 36.6557161 137.59596569 43.30859375 137.53125 C44.19297623 137.5350769 45.0773587 137.53890381 45.98854065 137.54284668 C47.85687399 137.54555871 49.72524575 137.5382473 51.59350586 137.52148438 C54.39852848 137.5002944 57.20092177 137.52118921 60.00585938 137.546875 C80.74497214 137.58005225 99.13913979 133.09403476 114.26953125 118.01953125 C125.73300186 105.82885546 130.50954559 90.32704488 130.20703125 73.90625 C129.3220886 57.20921891 121.13394103 43.04879183 109 32 C99.97627684 24.88564435 87.91539779 18.96225045 76.23486328 18.82299805 C75.29353546 18.81016281 74.35220764 18.79732758 73.38235474 18.78410339 C72.3718808 18.77671646 71.36140686 18.76932953 70.3203125 18.76171875 C68.75203201 18.74961113 68.75203201 18.74961113 67.15206909 18.73725891 C64.94140268 18.72343903 62.73071512 18.71270752 60.52001953 18.70483398 C57.14444583 18.68759928 53.76984621 18.6436909 50.39453125 18.59960938 C48.24479885 18.58948377 46.09505815 18.58096726 43.9453125 18.57421875 C42.43567429 18.54795662 42.43567429 18.54795662 40.89553833 18.52116394 C33.47934885 18.5440595 29.66570628 19.96051895 24.64941406 25.68017578 Z M160 19 C160 57.61 160 96.22 160 136 C186.07 136 212.14 136 239 136 C232.90876431 124.47040246 232.90876431 124.47040246 226.4375 113.1875 C222.17174779 106.01185607 217.97932028 98.79602713 213.8125 91.5625 C213.17570312 90.45753174 212.53890625 89.35256348 211.8828125 88.21411133 C209.92133341 84.80971919 207.96059137 81.40490345 206 78 C198.50449929 64.98522426 191.000948 51.97544334 183.4375 39 C182.87796631 38.0394873 182.31843262 37.07897461 181.74194336 36.08935547 C180.16629267 33.38993524 178.58438717 30.69430016 177 28 C176.43941895 27.0409375 175.87883789 26.081875 175.30126953 25.09375 C174.75970215 24.1759375 174.21813477 23.258125 173.66015625 22.3125 C173.17297119 21.48363281 172.68578613 20.65476563 172.18383789 19.80078125 C171.79317139 19.20652344 171.40250488 18.61226562 171 18 C167.31821299 18 163.663515 18.6336485 160 19 Z M142 103 C141.5153125 104.02738281 141.030625 105.05476563 140.53125 106.11328125 C136.00076718 115.54380288 131.36676421 124.78335507 123.765625 132.171875 C121.76843193 133.81617363 121.76843193 133.81617363 122 136 C128.93 136 135.86 136 143 136 C143 125.11 143 114.22 143 103 C142.67 103 142.34 103 142 103 Z " fill="#FDFDFD" transform="translate(113,165)"/>
<path d="M0 0 C0.66 0.33 1.32 0.66 2 1 C3.53668865 1.22467831 5.07968054 1.40796805 6.625 1.5625 C7.44226563 1.64628906 8.25953125 1.73007813 9.1015625 1.81640625 C9.72804688 1.87699219 10.35453125 1.93757812 11 2 C11 2.33 11 2.66 11 3 C7.04 3 3.08 3 -1 3 C-1.33 2.34 -1.66 1.68 -2 1 C-1.34 0.67 -0.68 0.34 0 0 Z " fill="#C1C1C2" transform="translate(113,165)"/>
</svg>
